<svg width="64" height="74" viewBox="0 0 64 74" fill="none" xmlns="http://www.w3.org/2000/svg">
<path d="M52.6519 8.54702C52.2159 8.19811 51.6785 7.99969 51.1202 7.9826H41.686V6.45034C41.686 4.14581 40.4569 2.01654 38.4611 0.863996C36.4652 -0.287999 34.0064 -0.287999 32.0105 0.863996C30.0146 2.01654 28.7855 4.14581 28.7855 6.45034V7.98203L17.2551 7.98259C15.5442 7.98259 13.9033 8.6622 12.6941 9.87156C11.4842 11.0814 10.8045 12.7223 10.8045 14.4332V24.1088C10.8045 25.8197 11.4841 27.46 12.6941 28.6698C13.9034 29.8797 15.5442 30.5594 17.2551 30.5594H28.7855V35.3972H12.9013C12.343 35.4142 11.8056 35.6127 11.3697 35.9616L0.887674 44.9923C0.334275 45.4151 0.00686971 46.0699 0.0008022 46.766C-0.0184897 47.4908 0.311119 48.1808 0.887674 48.6208L11.3697 57.4095C11.783 57.797 12.3359 58.0004 12.9013 57.9739H28.7855V71.278C28.7624 71.9262 29.0099 72.5551 29.4685 73.0138C29.9276 73.4723 30.5559 73.7198 31.2042 73.6972H39.2676C39.9158 73.7198 40.5442 73.4723 41.0028 73.0138C41.4619 72.5552 41.7094 71.9262 41.6863 71.278V57.9739H46.7661C48.4769 57.9739 50.1179 57.2943 51.3271 56.0844C52.537 54.8745 53.2167 53.2342 53.2167 51.5233V41.8478C53.2167 40.1369 52.537 38.496 51.3271 37.2867C50.1178 36.0768 48.4769 35.3972 46.7661 35.3972H41.6863V30.5594H51.1204C51.6859 30.5858 52.2388 30.3824 52.6521 29.995L63.1341 21.0447C63.6831 20.585 64 19.9059 64 19.1898C64 18.4744 63.6831 17.7953 63.1341 17.3356L52.6519 8.54702ZM33.6225 6.45034C33.6225 5.55961 34.3445 4.83808 35.2347 4.83808C36.1255 4.83808 36.8476 5.55959 36.8476 6.45034V7.98203L33.6226 7.98259L33.6225 6.45034ZM36.8474 68.8596H33.6225V57.9747H36.8474V68.8596ZM48.3778 41.8479V51.5235C48.3778 51.9512 48.208 52.3613 47.9054 52.6639C47.6028 52.9659 47.1927 53.1363 46.765 53.1363H13.7874L6.2085 46.7661L13.788 40.235H46.7656C47.1933 40.235 47.6034 40.4048 47.906 40.7074C48.2086 41.01 48.3784 41.4201 48.3784 41.8478L48.3778 41.8479ZM36.8474 35.3973H33.6225V30.5595H36.8474V35.3973ZM50.2319 25.7217H17.2543C16.3636 25.7217 15.6415 24.9997 15.6415 24.1089V14.4334C15.6415 13.5426 16.3635 12.8205 17.2543 12.8205H50.2319L57.8108 19.1901L50.2319 25.7217Z" fill="#142A44"/>
</svg>
