<?xml version="1.0" encoding="UTF-8" standalone="no"?>
<!DOCTYPE svg PUBLIC "-//W3C//DTD SVG 1.1//EN" "http://www.w3.org/Graphics/SVG/1.1/DTD/svg11.dtd">
<svg width="100%" height="100%" viewBox="0 0 2363 2363" version="1.1" xmlns="http://www.w3.org/2000/svg" xmlns:xlink="http://www.w3.org/1999/xlink" xml:space="preserve" xmlns:serif="http://www.serif.com/" style="fill-rule:evenodd;clip-rule:evenodd;stroke-linejoin:round;stroke-miterlimit:2;">
    <g id="logo-chinese-lateral">
    </g>
    <g id="logo-chinese-lateral-white">
    </g>
    <g id="logo-chinese-vertical" transform="matrix(4.16667,0,0,4.16667,0,0)">
        <g transform="matrix(1,0,0,1,268.594,468.419)">
            <path d="M0,-47.252C-1.42,-44.618 -3.533,-42.844 -6.372,-41.795C-8.975,-40.833 -11.49,-39.626 -14.558,-38.31C-11.198,-33.641 -7.224,-35.573 -3.494,-34.848C-3.187,-33.854 -2.848,-32.734 -2.571,-31.835C-7.129,-27.237 -11.916,-26.867 -17.01,-29.588C-21.497,-31.985 -22.16,-35.691 -18.776,-39.405C-14.604,-43.98 -9.929,-47.97 -4.393,-50.832C-3.305,-51.4 -2.074,-51.691 -1.167,-52.015C1.119,-50.509 0.891,-48.916 0,-47.252M30.668,-58.805C33.894,-57.283 34.595,-53.971 32.387,-50.02C31.788,-50.091 30.952,-49.949 30.447,-50.296C26.37,-53.135 21.836,-53.001 17.238,-52.409C14.636,-52.078 12.656,-52.504 12.451,-55.604C16.095,-58.954 26.52,-60.761 30.668,-58.805M19.47,-39.761C21.354,-42.379 21.354,-42.379 24.162,-41.282C22.349,-38.735 22.349,-38.735 19.47,-39.761M90.971,-3.572C89.252,-6.442 86.318,-7.034 83.133,-7.121C68.07,-7.563 53.009,-8.162 37.946,-8.58C29.911,-8.801 21.867,-8.737 13.832,-8.895C11.632,-8.935 9.179,-8.564 7.436,-11.048C9.384,-13.5 11.229,-15.984 13.232,-18.326C15.535,-21.016 17.569,-24.209 20.439,-26.063C25.36,-29.217 30.684,-31.898 36.133,-34.027C42.157,-36.377 46.172,-40.572 49.231,-45.896C53.607,-53.489 50.604,-62.716 42.931,-66.841C36.204,-70.452 29.13,-70.16 21.931,-69.545C16.087,-69.041 10.235,-68.662 4.392,-68.189C0.394,-67.865 -3.73,-67.968 -7.571,-67.006C-14.81,-65.192 -22.767,-64.388 -27.025,-56.763C-27.223,-56.407 -27.672,-56.202 -27.956,-55.879C-31.347,-52.031 -35.053,-48.411 -38.026,-44.264C-41.796,-39.02 -40.321,-29.044 -35.313,-24.896C-29.312,-19.928 -22.451,-16.466 -14.834,-14.573C-14.021,-14.368 -13.343,-13.618 -12.365,-12.964C-15.835,-9.219 -20.692,-11.135 -25.046,-8.477C-23.153,-7.523 -21.64,-6.75 -20.117,-5.985C-20.22,-5.449 -20.314,-4.913 -20.409,-4.368C-21.458,-3.635 -22.507,-2.894 -23.556,-2.152C-27.774,0.828 -31.962,3.856 -36.229,6.774C-40.479,9.684 -44.753,12.483 -49.839,13.982C-52.292,14.699 -54.365,16.694 -56.937,18.319C-53.356,22.128 -49.61,23.2 -45.241,22.151C-36.244,20.015 -28.531,15.401 -21.45,9.613C-17.791,6.616 -14.171,3.564 -10.575,0.474C-8.123,-1.632 -5.441,-2.39 -2.2,-1.798C3.863,-0.686 9.959,0.3 16.063,1.199C34.587,3.92 53.269,3.383 71.903,3.683C77.345,3.777 82.802,3.399 88.234,2.974C89.631,2.862 91.775,2.019 92.083,1.041C92.501,-0.268 91.775,-2.231 90.971,-3.572" style="fill:rgb(35,31,32);"/>
        </g>
        <g transform="matrix(1,0,0,1,252.381,194.736)">
            <path d="M0,-41.147C3.073,-43.723 2.291,-48.913 -1.743,-51.322C-3.691,-52.485 -5.941,-53.151 -8.071,-54C-9.242,-54.465 -10.448,-54.841 -11.637,-55.256C-11.969,-55.714 -12.3,-56.171 -12.631,-56.629C-11.825,-56.895 -10.968,-57.062 -10.222,-57.444C-2.46,-61.411 9.351,-58.597 14.087,-51.298C16.881,-46.991 15.895,-42.153 14.669,-37.543C12.98,-31.198 9.025,-26.701 3,-24.022C0.771,-23.032 -1.448,-22.004 -3.597,-20.855C-8.81,-18.064 -9.795,-15.654 -8.288,-9.174C-3.929,-7.237 1.943,-10.538 6.38,-5.653C5.064,-5.097 4.13,-4.601 3.136,-4.303C1.215,-3.729 -0.789,-3.402 -2.671,-2.728C-6.225,-1.455 -7.406,0.576 -6.711,3.776C-5.971,7.184 -3.296,9.181 0.247,8.638C4.64,7.966 8.993,7.043 13.366,6.247C14.066,6.119 14.783,6.08 15.876,5.957C16.83,6.819 17.925,7.808 19.688,9.403C15.334,10.742 11.849,11.84 8.348,12.884C-3.198,16.326 -14.651,20.264 -27.011,19.207C-30.697,18.894 -34.33,18.561 -37.888,15.656C-30.088,14.177 -22.468,15.02 -15.144,11.657C-16.258,8.379 -16.745,4.948 -18.494,2.374C-20.191,-0.123 -23.185,-1.739 -25.82,-3.917C-23.71,-4.397 -21.85,-4.82 -20.185,-5.199C-19.184,-8.913 -19.894,-15.566 -21.749,-19.822C-23.07,-19.701 -24.583,-19.675 -26.052,-19.409C-33.352,-18.085 -39.447,-23.119 -38.91,-30.442C-38.63,-34.261 -37.817,-38.094 -36.759,-41.781C-36.28,-43.449 -34.615,-44.776 -33.487,-46.257C-33.169,-46.111 -32.851,-45.964 -32.531,-45.819C-31.766,-42.093 -31.305,-38.267 -30.12,-34.68C-29.402,-32.504 -27.722,-30.558 -26.151,-28.796C-25.518,-28.085 -24.023,-28.142 -22.92,-27.85C-22.656,-28.219 -22.394,-28.588 -22.129,-28.958C-23.738,-31.087 -25.347,-33.217 -27.031,-35.446C-24.678,-37.092 -22.048,-38.215 -20.542,-40.195C-19.086,-42.108 -18.789,-44.902 -17.714,-48.112C-15.801,-47.37 -14.046,-47.143 -12.952,-46.171C-10.654,-44.131 -8.275,-42.986 -5.154,-43.427C-3.009,-43.731 -1.192,-42.986 0.05,-41.109C-5.999,-39.463 -8.32,-36.29 -6.291,-32.44C-1.265,-33.37 1.168,-36.736 0,-41.147" style="fill:rgb(35,31,32);"/>
        </g>
        <g transform="matrix(1,0,0,1,285.508,307.716)">
            <path d="M0,6.341C-0.898,8.348 -1.473,9.626 -2.1,11.026C-9.929,15.054 -15.067,9.112 -21.661,4.764L-21.661,15.266C-28.54,16.756 -32.669,15.355 -35.45,10.058C-37.468,6.215 -40.371,4.81 -44.37,4.503C-48.593,4.181 -52.867,3.925 -56.756,1.502C-50.596,-0.897 -43.916,1.382 -37.487,-0.834C-36.563,-2.371 -35.484,-4.164 -33.991,-6.647C-32.049,-5.545 -30.279,-4.787 -28.799,-3.652C-24.73,-0.531 -24.357,-0.362 -20.212,-3.279C-17.389,-5.264 -14.584,-5.005 -11.632,-3.877C-8.387,-2.638 -5.135,-1.471 -1.662,-2.94C2.896,-8.633 5.289,-7.429 10.139,-4.8C14.063,-2.671 15.573,-2.679 19.494,-4.879C19.8,-6.095 20.144,-7.461 20.464,-8.737C22.527,-10.415 24.452,-9.646 26.128,-8.513C29.976,-5.912 33.702,-3.131 37.824,-0.176C31.448,0.453 28.422,5.874 24.148,9.685C20.713,12.748 15.672,13.273 11.7,11.379C8.01,9.615 4.187,8.13 0,6.341" style="fill:rgb(35,31,32);"/>
        </g>
        <g transform="matrix(1,0,0,1,266.981,139.891)">
            <path d="M0,42.181C9.83,37.84 21.029,40.378 30.544,34.554C24.75,31.83 19.914,28.567 19.238,21.134C21.29,20.994 23.346,20.767 25.404,20.73C31.905,20.612 38.68,13.199 38.095,6.769C37.899,4.624 36.627,3.389 34.631,2.886C31.71,2.151 28.76,1.535 25.843,0.786C23.937,0.298 22.07,-0.335 20.269,-1.295C28.584,-3.908 36.684,-4.676 44.393,0.431C48.748,3.318 50.28,7.228 48.757,12.268C47.845,15.288 46.812,18.272 45.87,21.284C45.748,21.674 45.854,22.136 45.854,22.832C46.435,24.012 47.127,25.413 47.848,26.876C46.451,31.819 42.364,31.549 38.434,31.572C38.399,31.888 38.364,32.203 38.329,32.52C39.516,32.75 40.723,33.254 41.886,33.167C47.884,32.718 53.869,32.093 59.863,31.582C62.147,31.388 64.459,31.112 66.729,31.275C69.691,31.487 72.296,32.59 73.569,35.729C72.544,39.065 69.826,39.468 67.053,39.351C62.758,39.17 58.474,38.448 54.185,38.443C44.546,38.433 35.13,39.906 25.837,42.66C18.438,44.855 10.837,46.857 3.036,44.127C2.361,43.891 1.687,43.641 1.042,43.336C0.811,43.226 0.666,42.934 0,42.181" style="fill:rgb(35,31,32);"/>
        </g>
        <g transform="matrix(1,0,0,1,292.84,562.035)">
            <path d="M0,-83.544C4.603,-83.8 9.11,-80.628 10.48,-76.494C10.748,-75.684 10.974,-74.823 11.004,-73.979C11.596,-57.523 12.467,-41.068 12.582,-24.608C12.635,-16.926 10.313,-9.459 7.094,-2.396C6.685,-1.499 6.219,-0.628 5.779,0.256C5.281,0.041 4.782,-0.172 4.283,-0.387C3.688,-1.87 2.734,-3.313 2.557,-4.845C1.634,-12.803 0.368,-20.773 0.235,-28.758C0.02,-41.643 0.698,-54.539 0.783,-67.433C0.817,-72.697 0.288,-77.967 0,-83.544" style="fill:rgb(35,31,32);"/>
        </g>
        <g transform="matrix(1,0,0,1,302.409,19.4736)">
            <path d="M0,47.675C2.865,43.757 7.595,41.439 8.098,35.737C1.675,34.971 -5.312,37.922 -10.23,31.155C-7.422,30.18 -5.238,29.422 -3.044,28.66C-3.369,24.388 -9.378,24.127 -8.221,18.871C-3.37,19.126 1.568,19.241 6.473,19.707C8.701,19.918 10.569,21.098 10.485,24.697C8.222,25.338 5.776,26.03 2.688,26.904C5.19,29.604 7.341,31.923 9.5,34.254C10.074,34.029 10.639,33.99 10.818,33.707C14.924,27.271 17.562,20.35 16.356,12.606C15.088,4.447 9.97,1.268 1.64,3.553C-1.823,4.504 -4.854,4.304 -7.869,2.66C-8.805,2.151 -9.538,1.273 -10.278,0.637C-10.009,0.014 -9.955,-0.409 -9.782,-0.466C-3.578,-2.49 2.787,-3.548 9.259,-2.455C14.273,-1.607 18.339,1.179 21.116,5.458C22.824,8.089 24.151,10.981 25.504,13.824C25.981,14.828 26.404,16.108 26.212,17.142C24.931,24.01 24.139,30.98 18.704,36.396C15.491,39.597 13.203,43.705 10.307,47.248C7.119,51.147 3.924,51.223 0,47.675" style="fill:rgb(35,31,32);"/>
        </g>
        <g transform="matrix(1,0,0,1,256.636,36.3103)">
            <path d="M0,66.015C-2.462,66.015 -4.653,66.381 -6.624,65.883C-7.881,65.564 -9.532,64.101 -9.761,62.911C-10.563,58.741 -10.916,54.472 -11.263,50.226C-11.482,47.532 -10.966,44.721 -11.517,42.119C-13.294,33.722 -12.83,25.29 -12.349,16.86C-12.112,12.724 -11.526,8.59 -10.807,4.506C-10.518,2.86 -9.447,1.35 -8.732,-0.222L-7.426,-0.366C-6.133,1.21 -4.404,2.601 -3.642,4.402C-2.198,7.808 -0.686,11.39 -0.331,15.009C0.278,21.24 0.016,27.556 0.136,33.836C0.16,35.117 0.293,36.395 0.322,37.676C0.506,45.965 0.699,54.253 0.815,62.543C0.829,63.486 0.386,64.436 0,66.015" style="fill:rgb(35,31,32);"/>
        </g>
        <g transform="matrix(1,0,0,1,277.546,186.367)">
            <path d="M0,68.885C1.291,67.373 2.264,65.901 3.546,64.783C13.379,56.213 20.432,45.67 24.915,33.546C26.302,29.796 26.516,25.369 26.258,21.317C25.916,15.914 24.487,10.589 23.734,5.202C23.432,3.044 23.685,0.809 23.685,-2.312C25.809,-1.352 27.292,-0.963 28.437,-0.117C33.309,3.485 36.164,8.366 36.581,14.42C37.512,27.966 35.034,40.811 26.791,51.835C21.476,58.944 15.081,65.179 6.998,69.326C5.038,70.332 3.08,71.197 0,68.885" style="fill:rgb(35,31,32);"/>
        </g>
        <g transform="matrix(1,0,0,1,311.036,287.751)">
            <path d="M0,0.189C0.093,3.118 -2.104,3.648 -4.263,3.95C-11.928,5.022 -19.59,6.144 -27.285,6.942C-34.269,7.667 -41.287,8.152 -48.303,8.461C-58.365,8.905 -67.677,6.653 -75.523,-0.078C-77.465,-1.743 -79.611,-3.368 -78.761,-6.367C-76.524,-8.716 -74.318,-7.806 -72.415,-6.472C-63.967,-0.554 -54.241,-0.422 -44.689,-0.956C-34.548,-1.522 -24.473,-3.282 -14.372,-4.543C-7.64,-5.384 -4.273,-4.3 0,0.189" style="fill:rgb(35,31,32);"/>
        </g>
        <g transform="matrix(1,0,0,1,215.644,330.77)">
            <path d="M0,1.609C2.226,1.774 4.464,1.84 6.675,2.12C21.933,4.047 37.01,1.804 52.12,0.238C65.668,-1.167 79.224,-2.496 92.772,-3.891C95.337,-4.156 97.893,-4.525 100.44,-4.927C105.001,-5.646 111.874,-3.3 115.809,0.542C114.967,0.708 114.312,0.965 113.668,0.943C103.454,0.582 93.404,1.824 83.307,3.309C73.257,4.789 63.069,5.408 52.923,6.129C45.065,6.687 37.18,6.972 29.302,7.103C20.216,7.255 11.266,6.167 2.634,3.121C1.72,2.797 0.812,2.459 -0.099,2.127C-0.066,1.955 -0.033,1.781 0,1.609" style="fill:rgb(35,31,32);"/>
        </g>
        <g transform="matrix(1,0,0,1,281.928,66.2356)">
            <path d="M0,-44.672C6.488,-43.128 9.705,-37.395 8.116,-31.717C6.735,-26.78 6.027,-21.655 4.956,-16.629C3.945,-11.892 2.848,-7.174 1.904,-2.962C-1.446,0 -3.706,-2.228 -5.903,-3.579C-8.07,-4.911 -8.416,-7.384 -7.332,-9.303C-4.602,-14.134 -4.701,-19.468 -3.816,-24.654C-3.051,-29.151 -1.796,-33.563 -0.877,-38.036C-0.452,-40.107 -0.312,-42.235 0,-44.672" style="fill:rgb(35,31,32);"/>
        </g>
        <g transform="matrix(1,0,0,1,303.812,99.9884)">
            <path d="M0,-24.459C2.143,-22.059 4.57,-19.853 6.362,-17.213C9.209,-13.021 13.13,-11.175 17.944,-10.845C22.516,-10.533 27.095,-10.207 31.673,-10.164C35.209,-10.131 38.431,-9.446 42.134,-6.901C40.368,-5.648 39.104,-4.307 37.555,-3.724C27.648,0 18.134,-1.242 9.024,-6.388C7.152,-7.446 5.3,-8.543 3.476,-9.682C-0.059,-11.889 -1.946,-15.21 -2.368,-19.248C-2.529,-20.788 -1.894,-22.411 -1.621,-23.997C-1.08,-24.151 -0.54,-24.305 0,-24.459" style="fill:rgb(35,31,32);"/>
        </g>
        <g transform="matrix(0.112363,0.993667,0.993667,-0.112363,232.799,-3.01956)">
            <path d="M28.004,-30.005C28.02,-23.717 28.044,-18.053 28.045,-12.39C28.044,-2.81 28.068,6.772 28.004,16.353C27.968,21.892 28.663,27.142 32.777,31.441C36.908,24.009 33.595,-20.818 28.004,-30.005" style="fill:rgb(35,31,32);"/>
        </g>
        <g transform="matrix(1,0,0,1,290.231,97.5461)">
            <path d="M0,-33.961C7.309,-29.023 7.529,-25.301 3.117,-19.389C-0.062,-15.128 -2.014,-9.94 -4.399,-5.11C-5.068,-3.755 -5.337,-2.2 -6.018,0C-8.575,-0.814 -10.756,-1.508 -13.146,-2.268C-13.146,-4.351 -13.696,-6.265 -13.056,-7.613C-8.904,-16.353 -4.493,-24.969 0,-33.961" style="fill:rgb(35,31,32);"/>
        </g>
        <g transform="matrix(1,0,0,1,330,351.305)">
            <path d="M0,0.614C-0.343,2.403 -0.523,5.164 -1.432,7.659C-2.684,11.101 -5.007,12.05 -9.056,11.508C-12.602,11.032 -13.745,9.768 -14.592,6.072C-15.662,1.4 -15.229,-2.999 -12.776,-7.148C-10.951,-10.234 -8.856,-11.436 -6.254,-10.936C-2.955,-10.301 -0.704,-7.964 -0.263,-4.567C-0.08,-3.157 -0.11,-1.723 0,0.614" style="fill:rgb(35,31,32);"/>
        </g>
        <g transform="matrix(1,0,0,1,259.247,508.345)">
            <path d="M0,-25.479C5.752,-25.875 8.589,-23.965 10.016,-18.898C10.699,-16.47 10.946,-13.783 10.725,-11.271C10.414,-7.744 9.482,-4.271 8.841,-0.899C4.12,0.396 -2.271,-2.833 -2.178,-6.997C-2.041,-13.158 -0.784,-19.294 0,-25.479" style="fill:rgb(35,31,32);"/>
        </g>
        <g transform="matrix(1,0,0,1,227.301,75.2949)">
            <path d="M0,-25.077C8.132,-20.747 11.496,-9.808 7.597,-1.339C0.512,0 -2.641,-2.046 -3,-9.039C-3.282,-14.51 -3.203,-20.127 0,-25.077" style="fill:rgb(35,31,32);"/>
        </g>
        <g transform="matrix(1,0,0,1,232.781,357.867)">
            <path d="M0,-7.784C3.751,-10.098 7.41,-9.274 10.85,-9.19C15.43,-9.079 19.437,-6.992 22.783,-3.973C23.725,-3.124 24.319,-1.122 24.02,0.091C23.778,1.069 21.944,2.314 20.825,2.306C13.681,2.251 6.868,0.872 1.526,-4.392C0.744,-5.162 0.545,-6.522 0,-7.784" style="fill:rgb(35,31,32);"/>
        </g>
        <g transform="matrix(1,0,0,1,259.633,357.691)">
            <path d="M0,-9.448C1.357,-12.398 3.362,-12.464 5.404,-12.345C10.631,-12.046 14.896,-9.436 18.962,-6.479C19.838,-5.842 20.463,-4.749 20.981,-3.752C22.911,-0.04 21,3.016 16.801,2.55C14.615,2.308 12.432,1.314 10.433,0.296C6.029,-1.946 2.767,-5.447 0,-9.448" style="fill:rgb(35,31,32);"/>
        </g>
        <g transform="matrix(1,0,0,1,287.365,355.364)">
            <path d="M0,-12.482C2.359,-14.702 4.912,-14.745 7.267,-13.39C10.463,-11.55 13.605,-9.515 16.406,-7.135C17.659,-6.072 18.396,-4.032 18.711,-2.314C19.197,0.343 17.05,2.263 14.301,2.086C9.174,1.756 0.701,-6.724 0,-12.482" style="fill:rgb(35,31,32);"/>
        </g>
        <g transform="matrix(0.362678,-0.931915,-0.931915,-0.362678,260.392,-0.391817)">
            <path d="M-11.238,-9.802C-15.652,-5.028 -16.451,10.623 -12.605,17.105C-12.084,16.32 -11.52,15.716 -11.238,14.999C-9.723,11.154 -8.284,7.28 -6.809,3.418C-5.326,-0.464 -7.155,-6.14 -11.238,-9.802" style="fill:rgb(35,31,32);"/>
        </g>
        <g transform="matrix(1,0,0,1,263.048,55.0181)">
            <path d="M0,-12.391C4.346,-11.093 9.137,-4.547 9.066,0C1.027,-0.72 -3.142,-4.696 0,-12.391" style="fill:rgb(35,31,32);"/>
        </g>
    </g>
    <g id="logo-chinese-vertical-white">
    </g>
</svg>
