<svg width="64" height="69" viewBox="0 0 64 69" fill="none" xmlns="http://www.w3.org/2000/svg">
<path d="M36.7774 30.6354C36.7774 23.5835 42.5402 17.8201 49.5926 17.8201V1.59271H8.56909C4.77764 1.59271 1.66851 4.70184 1.66851 8.49329V59.6779C1.66851 55.8865 4.77764 52.7773 8.56909 52.7773H49.5926V43.4499C42.5402 43.4499 36.7774 37.6871 36.7774 30.6347V30.6354Z" fill="#142A44"/>
<path d="M49.5925 68.2466H8.56896C3.86769 68.2466 0.000137329 64.4551 0.000137329 59.6778C0.000137329 54.9004 3.79159 51.1089 8.56896 51.1089H49.5925C50.5023 51.1089 51.1852 51.7913 51.1852 52.7016V66.5783C51.1846 67.5643 50.5023 68.2466 49.5925 68.2466ZM8.56896 54.3699C5.61162 54.3699 3.26106 56.7967 3.26106 59.6778C3.26106 62.5594 5.68786 64.9857 8.56896 64.9857H48.0001V54.3699H8.56896Z" fill="#142A44"/>
<path d="M1.59268 61.3461C0.682895 61.3461 0 60.6638 0 59.7534V8.56882C0 3.79145 3.86715 0 8.56882 0H49.5923C50.5021 0 51.185 0.68234 51.185 1.59268V17.8201C51.185 18.7299 50.5027 19.4128 49.5923 19.4128C43.4503 19.4128 38.3698 24.4176 38.3698 30.6354C38.3698 36.8536 43.3746 41.8579 49.5923 41.8579C50.5021 41.8579 51.185 42.5403 51.185 43.4506V52.7774C51.185 53.6872 50.5027 54.3701 49.5923 54.3701L8.56882 54.3696C5.61149 54.3696 3.26092 56.7964 3.26092 59.6775C3.18475 60.5878 2.50241 61.3457 1.59268 61.3457V61.3461ZM8.56896 3.18523C5.61162 3.18523 3.26106 5.61203 3.26106 8.49313V53.0806C4.70194 51.9434 6.59767 51.1849 8.56896 51.1849H48.0001V44.9666C40.7964 44.1325 35.1848 38.0661 35.1848 30.6349C35.1848 23.2038 40.7963 17.1374 48.0001 16.3033V3.18496L8.56896 3.18523Z" fill="#142A44"/>
<path d="M49.5925 45.0429C41.6303 45.0429 35.185 38.5971 35.185 30.6354C35.185 22.6732 41.6307 16.2278 49.5925 16.2278C57.5547 16.2278 64 22.6736 64 30.6354C64 38.597 57.5543 45.0429 49.5925 45.0429V45.0429ZM49.5925 19.4885C43.4505 19.4885 38.3699 24.4933 38.3699 30.7111C38.3699 36.9293 43.3748 41.9336 49.5925 41.9336C55.8102 41.9336 60.815 36.8531 60.815 30.635C60.815 24.4172 55.7345 19.4886 49.5925 19.4886V19.4885Z" fill="#142A44"/>
<path d="M51.9432 36.9292C51.5639 36.9292 51.1847 36.7774 50.8816 36.5499C50.1993 35.9432 50.1231 34.9572 50.7298 34.2749L53.9146 30.6352L50.7298 26.9956C50.1231 26.3132 50.1987 25.3274 50.8816 24.7206C51.5639 24.1139 52.5498 24.1895 53.1566 24.8724L57.2511 29.5737C57.7822 30.1804 57.7822 31.0901 57.2511 31.6969L53.1561 36.3987C52.7773 36.7779 52.3981 36.9292 51.9432 36.9292L51.9432 36.9292Z" fill="#142A44"/>
<path d="M55.9621 32.2278H43.2226C42.3128 32.2278 41.6299 31.5454 41.6299 30.6351C41.6299 29.7253 42.3122 29.0424 43.2226 29.0424H56.0378C56.9476 29.0424 57.6305 29.7248 57.6305 30.6351C57.6305 31.5454 56.872 32.2278 55.9623 32.2278H55.9621Z" fill="#142A44"/>
</svg>
