<svg width="64" height="69" viewBox="0 0 64 69" fill="none" xmlns="http://www.w3.org/2000/svg">
<path d="M36.7774 30.6353C36.7774 23.5835 42.5402 17.8201 49.5926 17.8201V1.59265H8.56909C4.77764 1.59265 1.66851 4.70178 1.66851 8.49323V59.6778C1.66851 55.8864 4.77764 52.7773 8.56909 52.7773H49.5926V43.4499C42.5402 43.4499 36.7774 37.687 36.7774 30.6346V30.6353Z" fill="#142A44"/>
<path d="M49.5925 68.2466H8.56895C3.86769 68.2466 0.000133514 64.4551 0.000133514 59.6778C0.000133514 54.9004 3.79159 51.1089 8.56895 51.1089H49.5925C50.5023 51.1089 51.1852 51.7913 51.1852 52.7016V66.5783C51.1846 67.5643 50.5023 68.2466 49.5925 68.2466ZM8.56895 54.3699C5.61162 54.3699 3.26105 56.7967 3.26105 59.6778C3.26105 62.5594 5.68786 64.9857 8.56895 64.9857H48.0001V54.3699H8.56895Z" fill="#142A44"/>
<path d="M1.59268 61.3461C0.682895 61.3461 0 60.6638 0 59.7534V8.56882C0 3.79145 3.86715 0 8.56882 0H49.5923C50.5021 0 51.185 0.68234 51.185 1.59268V17.8201C51.185 18.7299 50.5027 19.4128 49.5923 19.4128C43.4503 19.4128 38.3698 24.4176 38.3698 30.6354C38.3698 36.8536 43.3746 41.8579 49.5923 41.8579C50.5021 41.8579 51.185 42.5403 51.185 43.4506V52.7774C51.185 53.6872 50.5027 54.3701 49.5923 54.3701L8.56882 54.3696C5.61149 54.3696 3.26092 56.7964 3.26092 59.6775C3.18475 60.5878 2.50241 61.3457 1.59268 61.3457V61.3461ZM8.56896 3.18523C5.61162 3.18523 3.26106 5.61203 3.26106 8.49313V53.0806C4.70194 51.9434 6.59767 51.1849 8.56896 51.1849H48.0001V44.9666C40.7964 44.1325 35.1848 38.0661 35.1848 30.6349C35.1848 23.2038 40.7963 17.1374 48.0001 16.3033V3.18496L8.56896 3.18523Z" fill="#142A44"/>
<path d="M49.5925 45.0428C41.6303 45.0428 35.185 38.5971 35.185 30.6353C35.185 22.6731 41.6307 16.2278 49.5925 16.2278C57.5547 16.2278 64 22.6735 64 30.6353C64 38.597 57.5543 45.0428 49.5925 45.0428V45.0428ZM49.5925 19.4884C43.4505 19.4884 38.3699 24.4933 38.3699 30.711C38.3699 36.9293 43.3748 41.9336 49.5925 41.9336C55.8102 41.9336 60.815 36.853 60.815 30.6349C60.815 24.4172 55.7345 19.4886 49.5925 19.4886V19.4884Z" fill="#142A44"/>
<path d="M47.2418 36.9292C46.7869 36.9292 46.332 36.7774 46.0284 36.3981L41.9339 31.6969C41.4028 31.0902 41.4028 30.1804 41.9339 29.5737L46.0284 24.8724C46.6351 24.1901 47.6211 24.1139 48.3034 24.7206C48.9857 25.3273 49.0619 26.3133 48.4552 26.9956L45.2704 30.6353L48.4552 34.2749C49.0619 34.9573 48.9863 35.9432 48.3034 36.5499C48.0003 36.8535 47.6211 36.9292 47.2418 36.9292L47.2418 36.9292Z" fill="#142A44"/>
<path d="M55.9621 32.2277H43.2226C42.3128 32.2277 41.6299 31.5454 41.6299 30.635C41.6299 29.7253 42.3122 29.0424 43.2226 29.0424H56.0378C56.9476 29.0424 57.6305 29.7247 57.6305 30.635C57.6305 31.5454 56.872 32.2277 55.9623 32.2277H55.9621Z" fill="#142A44"/>
</svg>
