<svg width="1150" height="614" viewBox="0 0 1150 614" fill="none" xmlns="http://www.w3.org/2000/svg">
<g clip-path="url(#clip0_43_118)">
<path d="M391.929 267.622C419.721 300.975 433.617 317.651 453.818 328.875C470.498 338.143 484.89 341.819 484.89 341.819C496.969 344.904 502.023 343.975 511.242 349.93C516.918 353.597 527.325 359.917 530.672 374.336C532.347 381.548 532.043 389.366 531.719 396.957C531.098 411.555 530.476 426.153 529.855 440.751C529.201 456.103 528.521 471.658 525.18 486.24C521.838 500.822 515.469 514.564 506.046 521.486C491.593 532.104 473.779 524.674 458.27 531.459C483.551 534.228 504.611 534.906 519.95 534.949C554.344 535.045 594.743 532.047 594.765 532.046C594.765 532.046 582.824 530.042 560.525 526.3C578.579 524.917 599.459 525.02 622.513 528.23C642.198 530.97 659.974 535.49 675.549 540.64C662.86 526.918 651.746 521.613 643.842 519.329C637.233 517.419 627.79 516.154 609.188 510.904C602.197 508.93 598.175 507.597 594.51 502.625C588.604 494.613 591.266 487.521 585.306 476.405C579.43 465.446 574.217 467.44 570.075 456.94C569.463 455.387 567.271 452.207 567.352 435.71C567.438 418.284 567.523 400.858 567.609 383.432C567.632 378.787 567.67 374.02 568.833 369.699C572.217 357.13 584.208 354.154 592.692 351.988C613.749 346.612 629.542 345.309 638.853 344.264C666.357 341.177 662.595 337.505 692.591 334.049C706.642 332.431 714.869 332.384 728.449 327.628C742.094 322.85 751.225 316.791 753.87 314.987C766.045 306.684 775.121 296.912 781.174 289.42C779.349 288.921 777.525 288.422 775.701 287.922C768.931 295.752 759.845 304.625 748.341 312.017C727.259 325.564 708.013 327.739 696.017 327.617C705.112 325.459 722.632 319.089 734.804 297.515C736.63 294.279 738.175 290.985 739.485 287.723C738.324 288.171 737.162 288.619 736.001 289.067C731.727 294.753 725.644 302.033 717.725 309.109C712.628 313.664 702.344 322.089 686.073 329.02C668.432 336.533 654.486 337.717 632.152 339.412C607.005 341.319 601.759 338.804 588.193 344.212C575.358 349.327 565.557 357.356 559.203 363.448C553.362 351.735 548.99 341.969 546.119 335.324C542.457 326.851 538.529 318.621 534.973 310.054C529.582 297.064 527.638 291.12 524.032 290.705C520.56 290.306 517.498 295.257 515.709 298.804C515.709 298.804 515.713 298.807 515.722 298.814C523.821 305.358 530.171 312.584 532.857 316.121C540.794 326.578 549.552 348.308 544.714 359.681C543.16 363.331 540.571 365.057 538.963 365.886C522.15 345.742 508.994 340.135 499.789 338.992C495.971 338.518 487.427 338.141 475.945 333.777C470.228 331.604 465.557 329.117 461.376 326.645C439.14 313.498 423.568 304.291 410.857 284.423C405.303 275.741 395.78 257.967 391.131 227.862C386.472 235.012 381.814 242.163 377.155 249.314C380.338 253.388 385.477 259.878 391.929 267.622V267.622Z" fill="#3F2523"/>
<path d="M561.549 348.335C559.48 347.597 557.602 348.295 555.378 348.86C549.849 350.263 545.135 350.089 543.943 350.006C541.282 349.823 537.416 348.805 532.834 344.704C529.404 346.389 527.198 346.258 525.811 345.814C523.78 345.164 523.227 343.759 521.14 343.666C519.177 343.579 518.796 344.784 516.791 344.659C514.601 344.523 514.212 343.033 512.452 343.113C510.658 343.194 510.213 344.781 508.258 345.795C506.933 346.482 504.692 347.021 500.793 345.953C508.127 337.798 509.27 335.905 508.977 335.666C508.519 335.293 505.122 339.439 500.938 338.941C497.797 338.567 496.883 335.894 494.765 336.327C492.406 336.809 492.428 340.352 489.23 341.338C488.096 341.688 487.027 341.572 486.389 341.453C483.938 343.51 480.549 344.111 477.86 342.993C475.599 342.053 474.608 340.22 474.316 339.618C465.235 345.049 461.222 345.173 459.306 343.964C458.494 343.451 458.105 342.728 456.806 342.29C453.902 341.313 450.963 343.283 448.777 344.135C445.88 345.264 441.237 345.625 433.587 342.219C433.893 342.054 435.074 341.376 435.257 340.237C435.491 338.779 434.016 337.026 431.528 336.533C436.679 332.868 439.707 329.123 438.755 327.69C437.776 326.216 432.336 326.808 425.694 329.484C424.459 326.865 423.224 324.245 421.989 321.626C417.481 323.124 412.368 323.15 407.808 321.698C409.572 318.485 412.891 315.995 416.741 314.995C409.072 311.772 400.983 309.359 392.7 307.823C392.211 304.74 393.202 301.506 395.372 299.096C388.978 304.376 377.375 303.225 372.306 296.807C369.577 297.975 366.848 299.144 364.119 300.313C360.872 301.458 357.534 299.866 356.846 297.625C356.335 295.964 357.285 293.96 359.256 292.808C353.915 296.652 347.993 297.007 345.38 294.715C344.925 294.316 343.786 293.15 343.722 290.614C342.536 292.141 338.018 297.561 329.409 299.627C321.402 301.549 314.828 299.374 312.798 298.621C311.391 299.559 307.514 301.882 301.883 302.061C297.016 302.215 293.366 300.687 291.782 299.916C291.449 298.848 290.635 295.697 292.256 292.268C293.174 290.328 294.52 289.042 295.417 288.321C290.134 289.429 285.928 290.033 285.571 289.215C285.244 288.464 288.319 286.883 288.031 286.403C287.515 285.542 277.547 290.465 275.917 288.688C275.333 288.052 275.733 286.466 278.642 282.862C274.88 284.181 271.469 283.78 270.273 282.171C269.362 280.944 269.92 279.263 270.318 278.066C271.375 274.885 273.945 273.001 275.27 272.173C268.855 273.891 262.249 272.303 258.716 268.243C256.459 265.648 254.162 260.556 257.101 256.509C259.733 252.883 264.802 252.528 265.524 252.488C262.092 252.41 259.396 250.212 259.114 247.691C258.804 244.904 261.592 243.045 261.721 242.961C258.959 240.531 253.47 235.213 255.068 231.998C256.849 228.412 267.079 228.178 280.759 231.431C273.991 224.369 273.542 220.9 274.602 219.039C276.077 216.449 281.071 215.923 280.859 214.761C280.65 213.613 275.813 214.361 274.543 212.304C273.319 210.323 275.739 206.278 279.226 204.675C282.851 203.008 287.772 203.918 291.621 206.949C289.704 202.955 291.022 198.411 294.633 196.019C297.662 194.012 301.875 193.805 305.4 195.479C306.088 191.856 306.776 188.234 307.464 184.611C309.03 183.127 311.236 181.455 313.106 181.959C315.7 182.657 315.835 187.049 317.804 187.185C319.589 187.309 320.02 183.735 323.147 183.033C325.345 182.539 326.005 184.108 328.472 183.777C331.887 183.319 332.255 180.091 335.336 179.915C337.81 179.774 338.896 181.779 340.354 181.2C342.545 180.331 341.544 175.226 342.966 174.974C343.937 174.803 344.84 177.098 345.851 176.914C347.018 176.701 346.177 173.572 348.307 171.774C349.753 170.553 352.326 170.151 353.637 171.022C355.038 171.953 354.323 173.892 355.45 174.309C356.715 174.778 357.867 172.427 360.176 172.462C362.413 172.495 363.249 174.73 364.734 174.421C366.487 174.057 365.908 170.824 367.796 170.105C370.13 169.216 372.62 173.55 376.155 173.063C378.966 172.676 379.29 169.674 382.32 169.133C384.627 168.722 386.874 170.03 388.331 171.108C388.189 170.614 387.651 168.521 388.966 166.552C390.346 164.488 393.207 163.393 396.187 163.813C394.347 163.463 392.363 162.837 392.027 161.643C391.658 160.331 393.616 159.537 393.414 158.036C393.116 155.809 388.55 155.634 388.105 153.483C387.673 151.39 391.679 150.042 391.323 148.08C391.145 147.094 389.851 145.878 384.944 144.874C384.433 144.5 382.165 142.765 382.373 140.762C382.628 138.296 386.594 135.789 392.131 136.391C396.289 137.076 400.446 137.761 404.604 138.446C406.773 137.608 409.994 136.583 414.05 136.112C417.507 135.71 420.451 135.84 420.599 135.103C420.702 134.589 419.356 134.1 416.644 132.484C414.847 131.414 413.46 130.45 412.589 129.819C411.984 128.718 411.328 127.058 411.962 125.476C412.634 123.797 414.132 123.771 414.714 122.244C415.65 119.791 412.562 117.82 413.369 116.106C413.798 115.196 415.338 114.334 420.073 114.419C415.849 111.829 412.618 108.259 413.26 105.358C414.123 101.457 422.166 97.9723 433.034 100.144C442.091 100.666 444.369 99.5221 444.794 98.3938C445.38 96.8386 442.463 95.2647 441.474 91.2798C440.847 88.7499 441.313 86.5243 441.75 85.1316C443.103 84.5304 445.042 83.8806 447.44 83.734C454.047 83.33 458.817 87.0688 459.904 87.9658C454.375 81.1833 456.565 73.2208 461.341 70.981C464.726 69.3929 469.822 70.4893 473.82 73.55C479.898 69.1815 483.671 68.9879 486.005 69.6447C488.4 70.3186 489.155 71.8523 491.931 72.029C494.188 72.1727 494.702 71.2242 499.552 69.5366C504.199 67.9194 504.531 68.6317 506.869 66.7683C509.449 64.7118 508.528 63.1476 510.765 61.7259C514.09 59.6133 517.661 62.0898 519.376 60.2539C521.086 58.4221 518.051 55.2454 519.559 52.3661C520.86 49.8848 524.61 48.9098 528.25 48.5262C528.814 48.6557 530.993 49.2195 532.502 51.1622C534.19 53.3371 533.788 55.6299 533.7 56.074C537.312 52.2411 539.721 51.6299 541.327 51.9492C544.102 52.5012 545.536 55.6768 546.641 55.2783C547.182 55.0829 547.657 54.0136 546.961 49.6577C547.396 49.2217 549.063 47.6552 551.684 47.5079C553.143 47.4259 555.975 47.7233 556.784 49.4087C557.582 51.0703 556.297 53.8364 553.139 55.2906C557.229 55.9197 561.783 55.9177 564.152 53.4497C566.95 50.5342 565.068 45.5359 566.773 45.0472C568.825 44.4587 571.948 51.5902 575.12 51.1337C577.74 50.7566 577.315 45.6439 581.307 43.5988C583.995 42.2215 587.34 42.9258 589.572 43.6395C590.108 44.5579 590.715 45.8198 591.116 47.3822C591.469 48.757 591.562 49.9726 591.559 50.9245C593.882 47.6653 595.599 47.0863 596.749 47.1783C598.632 47.329 599.303 49.3045 601.307 49.274C602.964 49.2487 603.356 47.883 605.273 47.0093C607.848 45.8357 611.535 46.2975 613.794 47.6566C618.212 50.3142 616.924 56.255 619.998 56.846C621.625 57.1591 622.169 55.5276 625.178 55.5483C627.505 55.5644 628.302 56.5481 629.894 56.0135C631.282 55.5475 631.162 54.6371 632.795 53.736C634.471 52.8115 635.25 53.41 637.061 52.8354C639.936 51.9227 639.442 49.946 643.017 47.8741C643.452 47.6218 646.825 45.705 648.348 46.7143C649.015 47.1561 648.875 47.859 649.712 48.2271C650.654 48.6416 651.334 47.9714 652.452 48.2603C653.541 48.5416 653.546 49.3443 654.424 49.9166C656.349 51.171 658.675 48.8456 662.34 49.4682C664.384 49.8153 666.609 51.0388 666.743 52.3782C666.872 53.67 664.973 54.2387 665.209 55.2164C665.551 56.6309 669.671 56.047 672.2 58.0217C673.472 59.0156 674.694 60.9329 674.455 64.9868C677.434 63.1016 681.188 62.7864 683.84 64.2261C687.557 66.2435 688.964 71.6285 685.687 75.9148C690.611 76.3005 694.32 80.0056 694.242 84.0806C694.174 87.6682 691.184 90.88 686.981 91.6653C683.685 93.1403 681.95 93.917 681.95 93.917C681.95 93.9171 685.853 95.7337 689.184 97.3889C690.498 98.0424 692.466 99.0391 694.861 100.331C695.071 100.71 696.736 103.615 700.208 104.232C703.639 104.842 707.413 102.964 709.02 99.5499C714.393 95.9423 719.986 96.058 721.881 98.2116C723.245 99.7609 722.565 102.219 722.216 103.226C727.91 101.131 730.593 101.747 731.99 102.685C733.797 103.897 733.426 105.627 735.475 106.672C737.92 107.918 739.674 106.08 743.085 106.764C745.953 107.339 749.542 109.607 749.988 112.948C750.493 116.73 746.637 119.396 746.386 119.565C749.12 122.293 749.979 126.139 748.616 129.557C747.244 132.999 743.834 135.472 739.772 135.971C744.76 133.959 750.079 134.523 753.048 137.281C754.636 138.756 755.207 140.539 755.426 141.738C757.998 135.999 765.277 133.386 771.142 135.611C776.344 137.584 779.404 142.973 777.972 148.264C778.757 148.401 780.476 148.807 781.922 150.13C784.718 152.69 783.907 156.315 783.829 156.638C781.336 158.285 778.844 159.933 776.351 161.581C772.476 163.66 770.402 164.773 770.402 164.773C770.404 164.774 782.683 168.378 782.683 168.378C783.967 169.362 784.787 170.429 785.293 171.211C785.547 172.026 786.217 174.576 784.919 177.428C783.361 180.854 780.087 182.245 779.349 182.538C789.083 178.179 800.406 176.669 811.203 178.289C813.472 178.629 817.337 181.247 817.461 184.307C817.534 186.096 816.217 187.539 815.361 188.307C819.275 186.9 823.786 187.95 826.41 190.849C829.171 193.899 829.233 198.322 826.51 201.456C827.9 201.443 829.291 201.429 830.682 201.416C833.315 202.084 835.303 203.574 835.359 204.995C835.429 206.798 832.413 209.154 827.747 208.923C834.908 210.078 841.346 214.499 844.454 220.395C847.974 215.199 857.549 214.622 861.926 219.343C863.862 217.412 866.782 216.578 869.495 217.2C872.77 217.95 874.227 220.472 874.439 220.854C874.319 222.289 873.92 224.57 872.51 227.036C870.534 230.493 867.656 232.419 866.192 233.267C868.25 232.89 870.309 232.514 872.367 232.138C873.82 232.323 875.51 232.768 876.213 233.935C877.214 235.596 875.309 237.207 876.115 238.761C877.116 240.691 880.961 239.95 884.254 241.147C886.803 242.073 890.047 244.533 892.229 251.696C895.413 248.175 903.17 250.262 903.726 254.788C904.283 259.315 897.203 262.729 893.232 259.849C899.796 262.156 899.066 271.577 893.466 275.326C887.867 279.076 880.178 278.805 873.16 278.37C874.943 279.2 876.963 280.349 876.788 281.36C876.43 283.425 867.142 283.634 867.184 284.431C867.218 285.079 873.315 284.211 876.388 287.064C878.716 289.223 878.549 292.811 877.945 295.716C883.355 294.273 888.312 297.157 888.982 300.536C889.456 302.926 887.802 305.643 884.901 307.228C881.357 308.287 877.813 309.346 874.269 310.405C878.038 311.454 877.896 316.816 874.809 318.971C871.722 321.126 867.4 320.99 863.47 320.754C854.415 320.209 845.36 319.665 836.304 319.12C806.063 324.029 775.345 326.707 744.563 327.118C739.501 327.185 732.4 325.084 733.612 320.7C728.06 322.151 722.509 323.603 716.957 325.053C714.442 323.367 713.972 319.726 715.995 317.611C714.206 319.083 711.812 320.417 709.459 319.805C707.106 319.194 706.242 315.607 708.569 314.96C703.182 312.316 696.942 316.135 691.955 319.262C686.968 322.388 679.058 324.557 675.553 320.041C673.685 318.667 671.818 317.292 669.951 315.918C670.226 316.448 672.905 321.791 669.97 325.294C669.579 325.761 668.333 327.248 666.656 327.221C663.981 327.178 663.066 323.334 661.397 323.433C658.91 323.579 659.87 332.174 654.785 336.518C651.181 339.596 645.598 339.635 641.449 339.188C642.793 341.926 644.136 344.664 645.48 347.403C643.995 352.081 636.054 350.668 631.601 347.812C627.149 344.955 620.737 341.646 616.966 345.136C613.971 347.907 615.603 352.935 612.909 355.944C608.251 361.146 599.429 354.615 595.786 348.733C595.088 352.212 591.713 354.624 588.113 354.472C585.12 354.345 582.4 352.465 581.341 349.747C571.107 353.647 566.951 352.973 565.129 351.405C564.067 350.49 563.532 349.043 561.549 348.335V348.335Z" fill="#394C40"/>
<path d="M568.686 612.833C882.18 612.833 1136.32 475.882 1136.32 306.944C1136.32 138.006 882.18 1.0553 568.686 1.0553C255.192 1.0553 1.0553 138.006 1.0553 306.944C1.0553 475.882 255.192 612.833 568.686 612.833Z" stroke="black" stroke-width="2.11064" stroke-miterlimit="10"/>
<path d="M124.91 444.504C123.987 445.888 123.526 446.58 122.602 447.964C117.849 444.792 115.483 443.183 110.773 439.918C109.069 442.376 108.217 443.606 106.513 446.064C110.914 449.116 113.125 450.621 117.564 453.592C116.657 454.948 116.203 455.626 115.296 456.982C110.835 453.997 108.613 452.484 104.189 449.417C102.375 452.033 101.468 453.342 99.6549 455.958C104.778 459.509 107.352 461.258 112.524 464.701C111.567 466.139 111.088 466.859 110.131 468.297C103.148 463.648 99.6786 461.275 92.7863 456.431C99.225 447.27 102.445 442.689 108.884 433.527C115.254 438.004 118.46 440.2 124.91 444.504V444.504Z" fill="black"/>
<path d="M137.709 452.868C138.47 462.909 138.927 467.945 139.994 478.041C144.201 471.181 146.304 467.752 150.511 460.892C152.265 461.969 153.143 462.504 154.902 463.568C149.11 473.152 146.213 477.944 140.421 487.527C138.414 486.314 137.413 485.703 135.413 484.474C134.261 474.377 133.762 469.34 132.916 459.296C128.601 466.031 126.443 469.399 122.128 476.135C120.344 474.991 119.454 474.416 117.676 473.26C123.777 463.87 126.827 459.175 132.929 449.785C134.837 451.026 135.793 451.642 137.709 452.868V452.868Z" fill="black"/>
<path d="M165.756 470.017C163.878 478.83 162.974 483.25 161.236 492.116C167.866 486.047 171.152 482.989 177.664 476.828C179.51 477.863 180.434 478.377 182.285 479.399C175.236 486.185 168.1 492.894 160.892 499.512C158.532 498.175 157.354 497.502 155.002 496.144C156.936 486.511 158.986 476.891 161.145 467.306C162.987 468.397 163.909 468.939 165.756 470.017V470.017Z" fill="black"/>
<path d="M193.249 485.339C187.996 495.229 185.368 500.174 180.115 510.063C178.202 509.046 177.247 508.534 175.339 507.504C180.657 497.649 183.317 492.721 188.635 482.867C190.478 483.862 191.401 484.357 193.249 485.339Z" fill="black"/>
<path d="M217.705 507.719C217.705 507.719 215.036 513.289 209.657 512.081C209.916 517.391 210.063 520.05 210.395 525.373C208.403 524.417 207.409 523.935 205.422 522.965C205.028 517.877 204.849 515.336 204.523 510.259C202.553 509.278 201.569 508.784 199.605 507.788C197.618 511.714 196.625 513.676 194.638 517.602C192.758 516.649 191.819 516.17 189.943 515.205C195.064 505.246 197.624 500.266 202.745 490.307C206.614 492.298 208.554 493.279 212.444 495.214C218.849 498.4 219.769 503.43 217.705 507.719V507.719ZM207 506.756C210.02 508.257 212.256 507.964 213.537 505.341C214.801 502.753 213.54 500.404 210.863 499.073C208.676 497.986 207.583 497.438 205.402 496.333C203.849 499.402 203.072 500.937 201.519 504.006C203.708 505.115 204.804 505.664 207 506.756Z" fill="black"/>
<path d="M240.619 507.626C249.062 511.426 251.14 519.062 247.784 526.893C244.429 534.724 237.529 538.779 228.406 534.673C220.134 530.95 217.528 523.408 221.467 515.051C225.014 507.525 232.175 503.826 240.619 507.626V507.626ZM230.235 530.715C236.446 533.51 240.32 530.592 242.863 524.764C245.614 518.459 243.963 513.956 238.775 511.621C232.761 508.914 228.832 511.739 226.26 517.292C223.452 523.352 224.225 528.011 230.235 530.715V530.715Z" fill="black"/>
<path d="M265.588 519.26C268.021 528.949 269.315 533.796 272.057 543.488C274.963 535.984 276.417 532.232 279.323 524.729C281.202 525.457 282.143 525.818 284.026 526.533C280.047 537.002 278.057 542.236 274.079 552.704C271.932 551.888 270.859 551.476 268.717 550.644C265.892 540.967 264.557 536.127 262.042 526.451C259.009 533.853 257.493 537.555 254.461 544.957C252.544 544.171 251.586 543.775 249.673 542.977C253.983 532.641 256.138 527.473 260.448 517.137C262.501 517.994 263.529 518.418 265.588 519.26V519.26Z" fill="black"/>
<path d="M299.312 532.166C301.166 537.312 302.117 539.883 304.068 545.022C308.542 542.097 310.762 540.62 315.163 537.635C317.471 538.404 318.626 538.784 320.938 539.535C317.477 550.186 315.747 555.511 312.287 566.161C310.279 565.509 309.275 565.18 307.27 564.514C309.967 556.391 311.315 552.33 314.012 544.206C309.071 547.388 306.578 548.96 301.548 552.066C299.485 546.514 298.48 543.737 296.527 538.178C293.644 546.237 292.203 550.267 289.32 558.326C287.311 557.607 286.307 557.244 284.301 556.512C288.141 545.993 290.061 540.733 293.902 530.213C296.064 531.002 297.146 531.393 299.312 532.166V532.166Z" fill="black"/>
<path d="M348.797 548.023C348.341 549.623 348.113 550.423 347.657 552.023C342.346 550.51 339.695 549.731 334.404 548.125C333.535 550.987 333.1 552.418 332.231 555.281C337.175 556.782 339.652 557.512 344.615 558.932C344.166 560.501 343.941 561.285 343.492 562.854C338.504 561.427 336.015 560.693 331.045 559.184C330.12 562.231 329.658 563.754 328.733 566.8C334.487 568.547 337.37 569.393 343.148 571.032C342.676 572.694 342.441 573.525 341.969 575.187C334.167 572.975 330.277 571.819 322.52 569.411C325.841 558.717 327.502 553.369 330.824 542.674C337.993 544.9 341.589 545.97 348.797 548.023V548.023Z" fill="black"/>
<path d="M363.061 551.942C366.665 561.22 368.544 565.853 372.456 575.097C374.374 567.282 375.333 563.375 377.251 555.56C379.191 556.035 380.161 556.27 382.103 556.733C379.502 567.626 378.201 573.072 375.6 583.964C373.386 583.436 372.279 583.168 370.068 582.624C366.077 573.405 364.159 568.785 360.475 559.531C358.42 567.262 357.393 571.127 355.338 578.858C353.355 578.331 352.364 578.065 350.384 577.526C353.328 566.721 354.799 561.319 357.743 550.514C359.868 551.092 360.932 551.378 363.061 551.942V551.942Z" fill="black"/>
<path d="M387.074 562.295L388.037 558.125C396.308 560.031 400.454 560.929 408.763 562.612C408.422 564.29 408.252 565.129 407.912 566.806C404.717 566.159 403.121 565.827 399.931 565.147C397.95 574.425 396.96 579.063 394.979 588.341C392.961 587.91 391.952 587.692 389.936 587.249C391.975 577.984 392.994 573.352 395.033 564.087C391.847 563.386 390.255 563.028 387.074 562.295Z" fill="black"/>
<path d="M426.673 566.029C428.27 575.814 429.995 585.589 431.843 595.329C429.812 594.992 428.796 594.82 426.766 594.47C426.349 592.271 426.143 591.172 425.735 588.973C420.881 588.123 418.456 587.68 413.613 586.757C412.487 588.676 411.921 589.635 410.786 591.55C408.658 591.14 407.595 590.931 405.47 590.507C410.655 582.053 415.735 573.522 420.698 564.936C423.086 565.382 424.282 565.601 426.673 566.029V566.029ZM424.895 584.764C423.958 579.27 423.504 576.522 422.627 571.027C419.96 575.874 418.613 578.292 415.891 583.119C419.49 583.797 421.291 584.126 424.895 584.764V584.764Z" fill="black"/>
<path d="M447.975 569.543C446.557 578.907 445.849 583.589 444.431 592.953C449.099 593.658 451.435 593.994 456.111 594.632C455.876 596.344 455.759 597.2 455.525 598.911C448.734 597.985 445.342 597.486 438.568 596.418C440.314 585.357 441.188 579.826 442.935 568.765C444.95 569.083 445.958 569.238 447.975 569.543V569.543Z" fill="black"/>
<path d="M490.307 574.787C492.678 584.411 495.177 594.015 497.796 603.575C495.747 603.402 494.723 603.312 492.676 603.127C492.085 600.969 491.792 599.89 491.211 597.731C486.316 597.276 483.87 597.03 478.98 596.501C478.014 598.505 477.529 599.506 476.553 601.506C474.405 601.269 473.332 601.147 471.185 600.896C475.663 592.051 480.031 583.138 484.277 574.18C486.688 574.432 487.894 574.553 490.307 574.787V574.787ZM490.038 593.604C488.666 588.203 487.995 585.501 486.683 580.095C484.419 585.141 483.273 587.66 480.953 592.691C484.585 593.076 486.402 593.259 490.038 593.604V593.604Z" fill="black"/>
<path d="M509.09 576.382C510.155 583.261 510.705 586.7 511.837 593.575C513.808 586.911 514.777 583.576 516.685 576.901C518.767 577.033 519.808 577.095 521.89 577.214C522.982 584.07 523.544 587.497 524.698 594.35C526.649 587.66 527.607 584.312 529.492 577.61C531.558 577.708 532.591 577.754 534.658 577.838C532.055 587.081 529.367 596.304 526.598 605.498C524.546 605.397 523.521 605.344 521.469 605.23C520.289 598.547 519.715 595.205 518.596 588.518C516.683 595.022 515.71 598.271 513.735 604.764C511.685 604.631 510.659 604.561 508.61 604.415C506.966 594.956 505.405 585.476 503.931 575.988C505.994 576.153 507.026 576.231 509.09 576.382V576.382Z" fill="black"/>
<path d="M553.069 578.379C556.188 587.786 559.433 597.164 562.794 606.488C560.74 606.477 559.713 606.468 557.66 606.444C556.901 604.34 556.524 603.287 555.775 601.18C550.864 601.112 548.408 601.059 543.498 600.917C542.694 602.99 542.289 604.026 541.475 606.097C539.318 606.03 538.24 605.993 536.082 605.911C539.845 596.741 543.493 587.512 547.017 578.248C549.437 578.309 550.648 578.336 553.069 578.379V578.379ZM554.283 597.159C552.491 591.882 551.61 589.242 549.879 583.956C548.021 589.164 547.078 591.765 545.163 596.963C548.811 597.061 550.635 597.101 554.283 597.159V597.159Z" fill="black"/>
<path d="M590.361 587.094C590.361 587.094 590.546 593.268 585.341 594.663C587.949 599.262 589.271 601.556 591.95 606.133C589.792 606.197 588.714 606.226 586.556 606.276C583.93 601.937 582.634 599.762 580.075 595.403C577.929 595.436 576.855 595.449 574.709 595.469C574.749 599.868 574.769 602.067 574.809 606.466C572.755 606.485 571.728 606.491 569.674 606.497C569.642 595.299 569.626 589.7 569.593 578.502C573.831 578.49 575.95 578.47 580.187 578.401C587.165 578.289 590.225 582.337 590.361 587.094V587.094ZM580.649 591.154C583.938 591.099 585.746 589.813 585.679 586.895C585.614 584.016 583.465 582.507 580.55 582.555C578.167 582.595 576.975 582.61 574.592 582.632C574.623 586.071 574.639 587.79 574.67 591.23C577.062 591.208 578.258 591.193 580.649 591.154V591.154Z" fill="black"/>
<path d="M617.579 576.922C617.684 578.582 617.736 579.413 617.841 581.073C612.374 581.418 609.639 581.567 604.167 581.818C604.305 584.806 604.373 586.301 604.511 589.289C609.624 589.054 612.18 588.916 617.291 588.6C617.391 590.229 617.442 591.043 617.543 592.672C612.407 592.989 609.838 593.127 604.698 593.364C604.845 596.544 604.918 598.134 605.064 601.314C611.015 601.041 613.99 600.877 619.936 600.496C620.047 602.22 620.102 603.082 620.213 604.806C612.185 605.321 608.168 605.529 600.132 605.849C599.686 594.66 599.464 589.065 599.018 577.876C606.446 577.581 610.158 577.39 617.579 576.922V576.922Z" fill="black"/>
<path d="M632.224 575.863C638.683 583.41 641.983 587.152 648.726 594.564C647.925 586.558 647.524 582.555 646.722 574.548C648.699 574.351 649.687 574.249 651.663 574.039C652.848 585.174 653.44 590.742 654.625 601.877C652.372 602.116 651.246 602.232 648.991 602.456C642.183 595.094 638.85 591.377 632.325 583.88C632.971 591.852 633.294 595.839 633.94 603.811C631.909 603.976 630.893 604.055 628.86 604.206C628.025 593.039 627.608 587.456 626.772 576.289C628.954 576.126 630.044 576.041 632.224 575.863V575.863Z" fill="black"/>
<path d="M680.331 570.469C680.567 572.116 680.685 572.939 680.92 574.586C675.488 575.363 672.769 575.728 667.326 576.411C667.699 579.379 667.886 580.863 668.259 583.831C673.346 583.193 675.887 582.853 680.965 582.134L681.538 586.172C676.435 586.895 673.88 587.237 668.768 587.878C669.166 591.037 669.364 592.617 669.762 595.775C675.681 595.032 678.638 594.634 684.546 593.783C684.793 595.493 684.916 596.348 685.163 598.058C677.186 599.207 673.192 599.732 665.195 600.686C663.867 589.567 663.203 584.007 661.875 572.888C669.266 572.007 672.957 571.523 680.331 570.469V570.469Z" fill="black"/>
<path d="M703.003 590.991C706.772 590.36 709.35 588.725 708.892 586.126C708.657 584.787 707.308 584.092 704.978 583.761C701.644 583.277 699.981 583.026 696.664 582.507C692.247 581.802 689.049 579.814 688.507 576.256C687.753 571.314 691.675 568.264 698.118 567.193C700.195 566.848 706.629 566.307 710.659 570.209C709.452 571.632 708.845 572.342 707.626 573.76C703.993 571.072 701.057 570.923 698.55 571.339C695.25 571.886 693.464 573.056 693.816 575.268C694.068 576.848 695.799 577.71 698.779 578.192C702.229 578.742 703.959 579.008 707.426 579.521C710.998 580.032 713.473 581.365 714.041 584.473C714.99 589.666 710.508 594.56 703.79 595.684C698.491 596.571 693.79 595.16 689.218 591.843C690.579 590.409 691.256 589.69 692.605 588.251C695.96 590.726 700.134 591.471 703.003 590.991V590.991Z" fill="black"/>
<path d="M732.224 585.556C735.973 584.789 738.495 583.06 737.944 580.479C737.66 579.149 736.284 578.504 733.942 578.258C730.587 577.896 728.914 577.706 725.575 577.309C721.13 576.765 717.858 574.895 717.187 571.359C716.256 566.447 720.07 563.256 726.479 561.951C728.547 561.53 734.966 560.755 739.139 564.508C737.982 565.973 737.4 566.705 736.231 568.167C732.498 565.613 729.555 565.571 727.061 566.078C723.778 566.746 722.033 567.981 722.465 570.178C722.773 571.747 724.538 572.546 727.537 572.919C731.009 573.343 732.749 573.546 736.238 573.931C739.832 574.312 742.357 575.554 743.037 578.639C744.173 583.795 739.864 588.849 733.18 590.218C727.91 591.297 723.155 590.058 718.46 586.91C719.77 585.427 720.423 584.685 721.721 583.197C725.168 585.548 729.37 586.141 732.224 585.556V585.556Z" fill="black"/>
<path d="M763.96 553.909C766.723 564.762 768.103 570.188 770.866 581.041C768.81 581.563 767.782 581.821 765.724 582.33C763.031 571.46 761.686 566.025 758.993 555.155C760.981 554.663 761.974 554.414 763.96 553.909V553.909Z" fill="black"/>
<path d="M779.353 549.831C787.147 556.029 791.11 559.083 799.165 565.093C796.883 557.376 795.742 553.518 793.459 545.802C795.379 545.234 796.339 544.947 798.257 544.367C801.501 555.085 803.122 560.445 806.366 571.163C804.179 571.825 803.085 572.151 800.895 572.797C792.785 566.849 788.795 563.826 780.945 557.689C783.067 565.401 784.128 569.258 786.25 576.97C784.271 577.514 783.28 577.783 781.298 578.315C778.394 567.499 776.943 562.092 774.039 551.276C776.166 550.705 777.229 550.416 779.353 549.831V549.831Z" fill="black"/>
<path d="M837.982 556.409C841.625 555.138 843.916 553.08 843.025 550.595C842.566 549.315 841.108 548.863 838.735 548.938C835.338 549.036 833.642 549.076 830.256 549.136C825.746 549.201 822.233 547.79 821.098 544.375C819.52 539.631 822.907 535.949 829.135 533.783C831.143 533.084 837.453 531.44 842.117 534.592C841.153 536.204 840.669 537.009 839.693 538.618C835.629 536.595 832.683 536.954 830.26 537.796C827.069 538.905 825.49 540.367 826.211 542.487C826.726 544.002 828.592 544.554 831.636 544.516C835.159 544.464 836.924 544.427 840.46 544.334C844.099 544.221 846.786 545.107 847.871 548.074C849.685 553.032 846.045 558.635 839.551 560.902C834.43 562.691 829.519 562.108 824.418 559.623C825.531 557.975 826.084 557.15 827.183 555.498C830.934 557.362 835.209 557.378 837.982 556.409V556.409Z" fill="black"/>
<path d="M871.146 528.022C871.146 528.022 873.48 533.741 869.014 536.904C873.106 540.283 875.167 541.961 879.32 545.293C877.287 546.123 876.27 546.535 874.233 547.351C870.215 544.221 868.221 542.645 864.261 539.472C862.23 540.267 861.214 540.662 859.179 541.443C860.756 545.55 861.544 547.604 863.121 551.711C861.175 552.458 860.2 552.829 858.25 553.564C854.302 543.084 852.329 537.844 848.381 527.364C852.404 525.848 854.412 525.076 858.42 523.504C865.02 520.915 869.353 523.614 871.146 528.022V528.022ZM863.321 535.287C866.431 534.065 867.702 532.216 866.618 529.505C865.548 526.831 862.976 526.183 860.219 527.266C857.965 528.152 856.836 528.59 854.577 529.457C855.81 532.669 856.427 534.274 857.659 537.485C859.927 536.615 861.059 536.175 863.321 535.287V535.287Z" fill="black"/>
<path d="M881.019 514.236C885.425 524.531 887.628 529.679 892.034 539.974C890.061 540.819 889.074 541.238 887.097 542.069C882.758 531.745 880.588 526.583 876.249 516.26C878.159 515.457 879.113 515.052 881.019 514.236V514.236Z" fill="black"/>
<path d="M907.592 502.276C911.635 510.841 913.655 515.123 917.697 523.688C922.053 521.63 924.226 520.585 928.558 518.46C929.318 520.012 929.698 520.787 930.459 522.339C924.166 525.425 921.007 526.933 914.666 529.877C909.953 519.719 907.596 514.64 902.883 504.481C904.769 503.605 905.711 503.164 907.592 502.276V502.276Z" fill="black"/>
<path d="M934.658 488.858C941.964 495.602 949.37 502.255 956.856 508.798C954.993 509.797 954.06 510.293 952.192 511.279C950.502 509.801 949.66 509.06 947.978 507.575C943.508 509.92 941.266 511.075 936.768 513.346C937.031 515.561 937.16 516.67 937.414 518.887C935.435 519.881 934.445 520.374 932.461 521.354C931.479 511.46 930.368 501.568 929.13 491.703C931.345 490.574 932.45 490.006 934.658 488.858V488.858ZM944.712 504.771C940.576 501.011 938.521 499.121 934.436 495.321C935.243 500.807 935.633 503.555 936.384 509.058C939.722 507.364 941.388 506.506 944.712 504.771V504.771Z" fill="black"/>
<path d="M954.514 478.182C963.665 482.3 968.296 484.297 977.667 488.158C973.628 481.199 971.608 477.72 967.568 470.761C969.341 469.73 970.227 469.212 971.995 468.17C977.679 477.818 980.521 482.642 986.205 492.29C984.188 493.479 983.178 494.07 981.155 495.244C971.745 491.456 967.093 489.496 957.901 485.45C961.781 492.445 963.721 495.942 967.601 502.937C965.765 503.956 964.846 504.463 963.005 505.469C957.636 495.642 954.951 490.729 949.582 480.902C951.558 479.821 952.544 479.277 954.514 478.182V478.182Z" fill="black"/>
<path d="M985.725 459.887C988.479 464.353 989.856 466.586 992.61 471.052C994.082 463.979 994.776 460.445 996.081 453.387C998.013 452.154 998.977 451.534 1000.9 450.286C999.844 456.253 999.286 459.24 998.111 465.218C1005.39 468.63 1009.06 470.298 1016.47 473.557C1014.49 474.84 1013.5 475.477 1011.52 476.745C1005.72 474.09 1002.84 472.74 997.124 469.992C996.639 472.54 996.391 473.814 995.884 476.363C997.698 479.304 998.604 480.775 1000.42 483.716C998.558 484.864 997.626 485.435 995.76 486.569C989.947 476.998 987.04 472.213 981.226 462.642C983.028 461.547 983.928 460.995 985.725 459.887V459.887Z" fill="black"/>
<path d="M1017.22 439.417C1025.34 445.199 1033.54 450.876 1041.81 456.431C1040.05 457.669 1039.17 458.284 1037.41 459.509C1035.54 458.253 1034.61 457.624 1032.75 456.36C1028.52 459.277 1026.39 460.717 1022.13 463.56C1022.65 465.734 1022.9 466.822 1023.41 469.001C1021.54 470.245 1020.6 470.864 1018.71 472.095C1016.6 462.36 1014.35 452.642 1011.99 442.966C1014.08 441.556 1015.13 440.846 1017.22 439.417V439.417ZM1029.14 453.986C1024.56 450.771 1022.27 449.151 1017.73 445.89C1019.17 451.256 1019.87 453.945 1021.26 459.335C1024.42 457.216 1026 456.146 1029.14 453.986V453.986Z" fill="black"/>
</g>
<defs>
<clipPath id="clip0_43_118">
<rect width="1149.54" height="613.888" fill="white"/>
</clipPath>
</defs>
</svg>
