<svg width="973" height="244" viewBox="0 0 973 244" fill="none" xmlns="http://www.w3.org/2000/svg">
<path d="M259.442 21.7919C259.442 25.7893 257.867 29.1566 254.721 31.8954C251.573 34.6361 247.333 36.8429 241.997 38.5186C236.661 40.1954 230.504 41.4191 223.526 42.1924C216.548 42.966 209.295 43.3528 201.772 43.3528H184.327V69.1676H149.232V0.714478H202.593C210.526 0.714478 217.95 1.08617 224.86 1.82642C231.768 2.56823 237.79 3.76013 242.92 5.40396C248.051 7.04748 252.086 9.20777 255.029 11.8817C257.97 14.5572 259.442 17.861 259.442 21.7919V21.7919ZM224.347 21.8885C224.347 20.2781 223.661 18.9562 222.295 17.9245C220.925 16.8941 219.078 16.0875 216.753 15.5074C214.426 14.9274 211.793 14.5406 208.852 14.3473C205.908 14.1538 202.865 14.0571 199.719 14.0571H184.327V30.2034H199.103C202.387 30.2034 205.533 30.075 208.544 29.8169C211.552 29.5601 214.255 29.1081 216.651 28.4633C219.043 27.8196 220.925 26.9645 222.295 25.901C223.661 24.8376 224.347 23.5006 224.347 21.8885Z" fill="white"/>
<path d="M267.652 27.593C273.671 24.8857 280.685 22.8554 288.688 21.5017C296.692 20.1484 304.866 19.4714 313.214 19.4714C321.833 19.4714 329.119 19.9715 335.071 20.9702C341.022 21.9701 345.846 23.5173 349.54 25.6109C353.234 27.7063 355.934 30.3485 357.647 33.5392C359.356 36.7296 360.212 40.5171 360.212 44.8997V69.1676H329.427V64.0432H328.811C326.21 66.042 322.276 67.5889 317.01 68.6841C311.742 69.7794 306.031 70.3277 299.874 70.3277C295.769 70.3277 291.526 70.0696 287.149 69.5544C282.769 69.0392 278.767 68.2007 275.143 67.0406C271.516 65.8802 268.54 64.3333 266.215 62.3996C263.887 60.4659 262.727 58.0822 262.727 55.2449C262.727 51.7643 264.744 48.9603 268.781 46.8334C272.815 44.7061 278.016 43.0626 284.378 41.9025C290.74 40.7421 297.821 39.9688 305.62 39.582C313.419 39.1952 321.012 39.002 328.401 39.002V38.2284C328.401 35.8446 326.621 34.0875 323.064 32.9592C319.505 31.8321 315.128 31.2672 309.93 31.2672C305.139 31.2672 300.521 31.7506 296.077 32.7175C291.629 33.6843 287.832 34.8444 284.686 36.1981L267.652 27.593V27.593ZM329.427 48.1871H325.117C321.423 48.1871 317.693 48.2686 313.932 48.4288C310.167 48.5902 306.816 48.8971 303.875 49.3472C300.932 49.7988 298.504 50.4591 296.59 51.3293C294.672 52.1993 293.717 53.3446 293.717 54.7615C293.717 55.6651 294.159 56.4383 295.051 57.082C295.939 57.7272 297.068 58.242 298.437 58.6288C299.803 59.0156 301.377 59.2907 303.157 59.4506C304.934 59.6124 306.646 59.6923 308.288 59.6923C315.128 59.6923 320.361 58.8073 323.988 57.0335C327.612 55.2616 329.427 52.8611 329.427 49.8306V48.1871V48.1871Z" fill="white"/>
<path d="M455.848 36.5849C453.93 35.4245 451.333 34.491 448.049 33.7809C444.765 33.0725 441.411 32.7175 437.992 32.7175C434.433 32.7175 431.22 33.0558 428.347 33.7325C425.473 34.4094 423.011 35.3127 420.959 36.4398C418.906 37.5681 417.296 38.8736 416.135 40.3553C414.971 41.839 414.391 43.4176 414.391 45.093C414.391 46.7698 414.936 48.3485 416.033 49.8306C417.127 51.3142 418.733 52.6194 420.856 53.7465C422.976 54.8748 425.506 55.7617 428.449 56.4053C431.39 57.0502 434.709 57.3721 438.403 57.3721C441.821 57.3721 445.208 57.0668 448.562 56.4534C451.913 55.8416 454.616 54.955 456.668 53.7946L475.345 64.5266C471.102 66.4603 465.629 67.9757 458.927 69.071C452.221 70.1662 445.105 70.7145 437.582 70.7145C429.507 70.7145 421.971 70.1344 414.975 68.9743C407.977 67.8139 401.897 66.1219 396.738 63.8984C391.575 61.6745 387.515 58.9839 384.555 55.825C381.596 52.6676 380.117 49.0903 380.117 45.093C380.117 41.1623 381.596 37.6166 384.555 34.4576C387.515 31.3002 391.575 28.6083 396.738 26.3845C401.897 24.1606 407.977 22.4535 414.975 21.26C421.971 20.0682 429.44 19.4714 437.377 19.4714C441.071 19.4714 444.73 19.6332 448.357 19.9549C451.981 20.2781 455.469 20.7134 458.824 21.26C462.175 21.8086 465.253 22.4853 468.059 23.2907C470.861 24.0973 473.293 24.9827 475.345 25.9495L455.848 36.5849V36.5849Z" fill="white"/>
<path d="M589.864 45.673V47.6067C589.864 48.2519 589.793 48.8637 589.658 49.4438H515.568C515.841 50.7974 516.699 52.0227 518.134 53.1179C519.572 54.2148 521.418 55.165 523.676 55.97C525.934 56.7767 528.464 57.4052 531.27 57.8555C534.071 58.3072 536.982 58.5322 539.992 58.5322C545.327 58.5322 549.843 58.0655 553.536 57.1304C557.232 56.1966 560.239 54.9881 562.568 53.5048L585.965 60.4659C581.173 63.7533 574.845 66.2837 566.981 68.0557C559.111 69.8279 549.977 70.7145 539.582 70.7145C531.918 70.7145 524.668 70.1495 517.827 69.0225C510.983 67.8954 505 66.2519 499.869 64.0916C494.738 61.9329 490.7 59.2741 487.761 56.1151C484.816 52.9577 483.349 49.3471 483.349 45.2865C483.349 41.3555 484.784 37.7934 487.658 34.6027C490.532 31.412 494.431 28.705 499.356 26.4811C504.281 24.2575 510.096 22.5337 516.8 21.3085C523.503 20.0848 530.756 19.4714 538.556 19.4714C546.078 19.4714 552.989 20.0682 559.285 21.26C565.575 22.4535 570.981 24.1773 575.497 26.4329C580.012 28.6898 583.533 31.4286 586.066 34.6512C588.597 37.8749 589.864 41.5488 589.864 45.673V45.673ZM558.873 39.582C558.873 37.0683 557.196 34.9092 553.845 33.1039C550.49 31.3002 545.463 30.3969 538.761 30.3969C535.477 30.3969 532.465 30.6387 529.73 31.1221C526.993 31.6055 524.6 32.2671 522.547 33.1039C520.495 33.9424 518.853 34.9259 517.621 36.053C516.39 37.1816 515.705 38.3584 515.568 39.582H558.873V39.582Z" fill="white"/>
<path d="M663.95 69.1676V0.714478H699.25V69.1676H663.95V69.1676Z" fill="white"/>
<path d="M763.897 32.8141V51.2551C763.897 53.5199 764.82 55.2178 766.668 56.3508C768.515 57.4839 771.831 58.0488 776.621 58.0488C778.263 58.0488 780.008 57.9852 781.855 57.8555C783.703 57.7271 785.242 57.5336 786.472 57.2752L786.883 68.8774C784.555 69.2642 781.614 69.6025 778.059 69.8927C774.499 70.1829 770.942 70.3277 767.385 70.3277C760.543 70.3277 754.796 69.9229 750.146 69.1163C745.494 68.3096 741.763 67.1464 738.962 65.6265C736.156 64.1083 734.138 62.2983 732.907 60.1984C731.676 58.0985 731.06 55.7557 731.06 53.1708V32.8141H714.641V21.0183H730.855V8.35266H763.897V21.0183H787.909V32.8141H763.897V32.8141Z" fill="white"/>
<path d="M972.059 116.502C837.574 103.873 738.871 121.938 673.025 141.16C606.036 160.717 567.089 183.213 498.709 176.144C432.761 169.326 416.57 142.981 339.81 141.62C309.124 141.076 259.394 140.81 207.745 170.063C167.515 192.849 143.542 223.678 131.192 242.455C87.517 241.942 43.8419 241.43 0.166748 240.917C22.1202 204.343 64.4609 148.004 136.625 114.567C210.705 80.2409 281.393 86.1837 329.583 90.2351C421.508 97.9632 427.69 123.78 508.505 124.452C575.978 125.013 593.325 107.197 670.552 97.0481C717.848 90.8325 788.754 87.3415 879.392 105.286C910.281 109.025 941.17 112.763 972.059 116.502V116.502Z" fill="#1A1A1A"/>
<path d="M10.9087 239.714C17.5356 229.699 27.4241 215.88 40.9087 200.714C57.2339 182.355 92.1151 143.938 149.909 118.714C195.89 98.6466 235.313 96.1214 260.909 94.7145C284.718 93.4056 329.309 91.3453 379.909 107.714C397.465 113.394 404.928 117.793 427.909 123.714C432.666 124.94 466.737 133.548 503.909 134.714C539.991 135.847 555.241 129.26 616.909 116.714C678.507 104.183 713.969 96.9682 757.909 95.7145C803.443 94.4153 840.476 100.02 863.909 104.714" stroke="#F18D1E" stroke-width="2" stroke-miterlimit="10"/>
<path d="M116.909 242.714C123.516 232.046 133.23 218.192 146.909 203.714C172.475 176.655 197.459 162.691 202.909 159.714C232.068 143.785 257.486 138.917 274.909 135.714C283.478 134.139 309.156 129.84 342.909 131.714C372.082 133.335 393.958 138.827 416.909 144.714C458.202 155.307 458.8 160.536 485.909 164.714C516.855 169.484 541.603 166.604 556.909 164.714C582.929 161.502 590.119 157.185 634.909 144.714C663.686 136.702 700.992 126.472 746.909 118.714C787.25 111.899 813.925 110.288 826.909 109.714C854.385 108.5 877.9 109.392 895.909 110.714" stroke="#F18D1E" stroke-width="2" stroke-miterlimit="10"/>
<path d="M117.909 180.714L81.9087 222.714" stroke="white" stroke-width="6" stroke-miterlimit="10"/>
<path d="M202.382 127.829L153.435 153.6" stroke="white" stroke-width="6" stroke-miterlimit="10"/>
<path d="M299.567 115.714H244.25" stroke="white" stroke-width="6" stroke-miterlimit="10"/>
<path d="M371.314 121.643L329.54 115.625" stroke="white" stroke-width="6" stroke-miterlimit="10"/>
<path d="M437.909 136.714L404.974 128.439" stroke="white" stroke-width="6" stroke-miterlimit="10"/>
<path d="M503.531 151.951L470.596 143.676" stroke="white" stroke-width="6" stroke-miterlimit="10"/>
<path d="M564.91 146.696L531.216 150.931" stroke="white" stroke-width="6" stroke-miterlimit="10"/>
<path d="M625.369 132.078L592.758 141.549" stroke="white" stroke-width="6" stroke-miterlimit="10"/>
<path d="M683.369 117.078L650.758 126.549" stroke="white" stroke-width="6" stroke-miterlimit="10"/>
<path d="M742.954 108.077L709.173 111.55" stroke="white" stroke-width="6" stroke-miterlimit="10"/>
</svg>
