<svg width="993" height="179" viewBox="0 0 993 179" fill="none" xmlns="http://www.w3.org/2000/svg">
<g clip-path="url(#clip0_43_100)">
<path d="M186.165 60.6527C186.165 68.9226 184.835 75.8526 182.165 81.4527C179.495 87.0527 175.835 91.5227 171.165 94.8526C165.268 99.057 159.543 100.901 154.565 101.953C129.51 107.244 118.418 98.2434 112.295 104.023C101.725 113.999 128.288 146.946 116.295 161.023C110.764 167.514 98.0397 168.812 90.2945 164.023C77.5616 156.149 86.4385 136.865 82.2945 88.0227C79.537 55.5216 73.1937 35.6246 84.2945 27.0227C86.8909 25.0108 91.3941 23.9874 100.295 22.0227C113.476 19.1131 124.61 18.0626 132.365 17.6527C141.194 17.3588 148.292 18.6529 153.165 19.6527C159.695 20.9927 165.395 23.2926 170.265 26.5527C175.135 29.8227 178.995 34.2227 181.865 39.7527C184.735 45.2926 186.165 52.2527 186.165 60.6527V60.6527Z" fill="white"/>
<path d="M213.295 44.0227C203.969 43.9857 195.623 34.8416 197.225 26.8139C198.586 19.9875 206.725 16.0526 213.365 16.0526C220.021 16.0526 228.151 20.008 229.504 26.8134C231.102 34.8519 222.687 44.06 213.295 44.0227V44.0227Z" fill="white"/>
<path d="M208.295 161.023C202.741 158.251 198.609 151.245 199.295 96.0227C199.646 67.7348 200.888 56.8751 208.295 53.0227C211.765 51.2177 216.671 50.9078 220.295 53.0227C228.394 57.7502 225.671 72.0196 225.295 97.0227C224.676 138.029 231.159 155.376 221.295 161.023C217.286 163.317 211.994 162.87 208.295 161.023Z" fill="white"/>
<path d="M344.295 129.023C342.362 152.487 345.285 159.654 339.295 164.023C334.033 167.86 325.121 167.185 320.295 163.023C318.113 161.141 315.457 157.417 316.295 132.023C316.58 123.374 317.135 116.306 317.565 111.653C317.688 108.109 317.411 105.152 317.264 102.953C317.065 99.9527 316.465 97.1927 315.465 94.6527C314.465 92.1227 312.935 90.0527 310.865 88.4527C308.795 86.8526 305.835 86.0527 301.965 86.0527C298.095 86.0527 294.965 86.7527 292.565 88.1527C290.165 89.5527 288.335 91.4226 287.065 93.7527C285.795 96.0927 284.965 98.7227 284.565 101.653C284.165 104.593 283.965 107.653 283.965 110.853C284.441 115.755 284.876 123.111 284.295 132.023C283.352 146.46 282.723 156.098 276.295 160.023C271.149 163.164 262.512 162.508 257.295 158.023C248.273 150.268 256.261 136.899 255.295 105.023C254.553 80.5612 249.357 72.223 256.295 64.0227C262.419 56.7829 275.547 52.5509 281.295 58.0227C286.72 63.1879 283.002 74.5553 282.764 75.2527H283.165C284.095 73.3927 285.435 71.5227 287.165 69.6527C288.895 67.7926 290.965 66.1227 293.365 64.6527C295.764 63.1927 298.495 61.9927 301.565 61.0527C304.635 60.1227 307.965 59.6527 311.565 59.6527C319.165 59.6527 325.295 60.8227 329.965 63.1527C334.635 65.4927 338.264 68.7227 340.865 72.8526C344.775 79.0646 345.93 85.8811 346.165 87.4527C347.893 99.0168 345.389 115.729 344.295 129.023V129.023Z" fill="white"/>
<path d="M461.069 144.066C454.012 152.735 445.208 156.141 440.264 158.053C435.418 159.927 406.951 170.193 384.295 152.023C364.988 136.539 365.121 112.612 365.165 110.653C365.67 87.9891 381.31 70.1536 398.065 63.2527C407.437 59.3923 415.707 59.551 419.165 59.6527C423.046 59.7668 443.904 60.7986 458.295 77.0227C474.812 95.6446 475.627 126.181 461.069 144.066V144.066Z" fill="white"/>
<path d="M944.069 144.066C937.012 152.735 928.208 156.141 923.264 158.053C918.418 159.927 889.951 170.193 867.295 152.023C847.988 136.539 848.121 112.612 848.165 110.653C848.67 87.9891 864.31 70.1536 881.065 63.2527C890.437 59.3923 898.707 59.551 902.165 59.6527C906.046 59.7668 926.904 60.7986 941.295 77.0227C957.812 95.6446 958.627 126.181 944.069 144.066V144.066Z" fill="white"/>
<path d="M649.295 91.0227C647.824 89.9489 646.504 87.8893 643.198 86.7345C642.361 86.442 640.75 86.0544 638.158 86.0544C630.558 86.0544 624.658 88.3235 620.459 92.8547C616.259 97.3889 614.158 103.323 614.158 110.655C614.158 113.252 614.256 121.69 620.459 128.455C621.796 129.913 623.497 131.768 626.295 133.023C634.93 136.895 640.568 129.02 651.295 131.023C652.106 131.174 661.689 133.111 665.295 141.023C667.223 145.254 667.606 151.555 664.263 155.297C662.903 156.818 661.166 157.259 656.259 158.755C649.923 160.686 643.89 161.655 638.158 161.655C630.689 161.655 623.658 160.455 617.058 158.054C610.459 155.655 604.724 152.223 599.859 147.755C594.99 143.289 591.158 137.924 588.359 131.655C585.558 125.389 584.159 118.389 584.159 110.655C584.159 102.924 585.558 95.9236 588.359 89.6545C591.158 83.3889 594.99 78.0232 599.859 73.5544C604.724 69.0891 610.459 65.6545 617.058 63.2546C623.658 60.8547 630.689 59.6545 638.158 59.6545C643.89 59.6545 649.923 60.6233 656.259 62.5544C660.211 63.7588 662.221 64.4256 664.385 66.0848C668.696 69.3896 673.474 76.4423 671.295 83.0227C668.341 91.9382 654.359 94.721 649.295 91.0227V91.0227Z" fill="white"/>
<path d="M553.295 91.0227C551.824 89.9489 550.504 87.8893 547.198 86.7345C546.361 86.442 544.75 86.0544 542.158 86.0544C534.558 86.0544 528.658 88.3235 524.459 92.8547C520.259 97.3889 518.158 103.323 518.158 110.655C518.158 113.252 518.256 121.69 524.459 128.455C525.796 129.913 527.497 131.768 530.295 133.023C538.93 136.895 544.568 129.02 555.295 131.023C556.106 131.174 565.689 133.111 569.295 141.023C571.223 145.254 571.606 151.555 568.263 155.297C566.903 156.818 565.166 157.259 560.259 158.755C553.923 160.686 547.89 161.655 542.158 161.655C534.689 161.655 527.658 160.455 521.058 158.054C514.459 155.655 508.724 152.223 503.859 147.755C498.99 143.289 495.158 137.924 492.359 131.655C489.558 125.389 488.159 118.389 488.159 110.655C488.159 102.924 489.558 95.9236 492.359 89.6545C495.158 83.3889 498.99 78.0232 503.859 73.5544C508.724 69.0891 514.459 65.6545 521.058 63.2546C527.658 60.8547 534.689 59.6545 542.158 59.6545C547.89 59.6545 553.923 60.6233 560.259 62.5544C564.211 63.7588 566.221 64.4256 568.385 66.0848C572.696 69.3896 577.474 76.4423 575.295 83.0227C572.341 91.9382 558.359 94.721 553.295 91.0227V91.0227Z" fill="white"/>
<path d="M713.557 75.2546H713.958C714.624 73.3889 715.757 71.5232 717.358 69.6545C718.958 67.7888 720.889 66.1233 723.158 64.6545C723.158 64.6545 726.801 62.3029 731.158 61.0544C737.404 59.2645 758.285 59.679 769.295 73.0227C779.452 85.3327 768.267 92.9623 773.295 134.023C774.657 145.151 776.591 153.679 771.295 159.023C766.494 163.866 756.713 165.126 751.295 161.023C740.155 152.586 746.7 120.901 747.295 118.023C747.295 118.023 749.251 108.55 747.295 100.023C746.942 98.4877 745.787 94.0679 742.42 90.2944C741.436 89.1916 740.697 88.6397 740.458 88.4548C738.389 86.8547 735.423 86.0544 731.557 86.0544C727.689 86.0544 724.557 86.7546 722.158 88.1545C719.757 89.5544 717.923 91.4236 716.658 93.7546C714.704 97.3533 714.219 101.115 714.158 101.655C712.883 112.984 714.295 131.023 714.295 131.023C715.632 148.11 716.301 156.654 711.295 161.023C705.927 165.707 695.245 165.183 690.295 160.023C684.587 154.073 688.18 143.713 690.295 132.023C691.845 123.45 689.662 97.974 685.295 47.0227C683.357 24.4163 681.91 12.0144 689.295 7.02268C693.504 4.17701 700.133 4.04438 704.295 7.02268C711.289 12.0285 708.335 23.6892 709.295 44.0227C709.908 57.0133 711.844 67.7323 713.557 75.2546V75.2546Z" fill="white"/>
<path d="M812.603 44.1699C803.277 44.1328 794.932 34.9888 796.533 26.9611C797.895 20.1347 806.033 16.1998 812.673 16.1998C819.33 16.1998 827.46 20.1552 828.813 26.9606C830.411 34.9991 821.995 44.2072 812.603 44.1699V44.1699Z" fill="white"/>
<path d="M807.603 161.17C802.05 158.398 797.917 151.392 798.603 96.1699C798.954 67.882 800.196 57.0223 807.603 53.1699C811.073 51.3649 815.98 51.055 819.603 53.1699C827.702 57.8974 824.98 72.1668 824.603 97.1699C823.985 138.176 830.467 155.523 820.603 161.17C816.594 163.464 811.303 163.017 807.603 161.17Z" fill="white"/>
<path d="M50.2945 52.0227C47.9057 56.4668 42.529 58.088 38.2945 57.0227C37.5224 56.8284 32.8872 55.5638 31.2945 51.0227C31.2103 50.7826 29.8288 46.6263 32.2945 43.0227C34.4067 39.9357 37.8753 39.3978 40.2945 39.0227C42.6666 38.6549 45.7948 38.1738 48.2945 40.0227C51.503 42.3958 52.4559 48.0017 50.2945 52.0227Z" fill="white"/>
<path d="M23.2945 23.0227C18.6261 25.6926 13.9619 25.2445 12.2945 25.0227C10.0605 24.7255 6.24766 24.2183 3.29453 21.0227C0.624121 18.1331 -0.611475 13.8373 0.294531 10.0227C1.90647 3.23597 9.89438 -0.320276 16.2945 0.022681C21.6777 0.311133 29.1335 3.54301 30.2945 10.0227C31.294 15.601 27.1338 20.827 23.2945 23.0227Z" fill="white"/>
<path d="M417.943 54.6701C415.326 48.4022 411.886 45.1629 409.058 43.3517C403.118 39.5481 398.151 40.9406 395.206 36.5498C393.326 33.7472 392.799 29.3774 394.854 26.7013C397.186 23.6637 402.129 23.7416 404.632 24.3794C412.274 26.3266 417.188 38.5899 417.943 54.6701V54.6701Z" fill="white"/>
<path d="M418.165 54.9166C420.782 48.6488 424.222 45.4094 427.051 43.5982C432.991 39.7947 437.957 41.1871 440.902 36.7963C442.782 33.9937 443.309 29.6239 441.254 26.9478C438.922 23.9103 433.98 23.9881 431.476 24.6259C423.834 26.5732 418.921 38.8365 418.165 54.9166V54.9166Z" fill="white"/>
<path d="M962.945 113.432C964.514 112.357 965.333 112.331 981.572 111.662C988.382 111.381 990.722 111.283 991.783 112.861C992.838 114.431 991.868 116.536 989.036 122.768C982.403 137.362 982.097 138.193 980.361 139.346C978.093 140.853 973.826 141.04 965.292 141.413C953.185 141.942 951.951 140.572 951.524 139.918C950.857 138.898 950.663 137.342 955.188 127.379C958.981 119.025 960.878 114.849 962.945 113.432V113.432Z" fill="white"/>
<path d="M957.217 171.272C958.512 172.664 959.306 172.869 975.005 177.076C981.589 178.84 983.851 179.447 985.231 178.14C986.604 176.839 986.119 174.572 984.719 167.872C981.44 152.18 981.323 151.303 979.882 149.797C977.999 147.831 973.876 146.715 965.63 144.483C953.932 141.318 952.429 142.384 951.868 142.929C950.995 143.779 950.465 145.254 952.7 155.967C954.573 164.947 955.51 169.438 957.217 171.272V171.272Z" fill="white"/>
</g>
<defs>
<clipPath id="clip0_43_100">
<rect width="992.198" height="178.843" fill="white"/>
</clipPath>
</defs>
</svg>
